<svg width="32" height="32" viewBox="0 0 32 32" fill="none" xmlns="http://www.w3.org/2000/svg">
<path fill-rule="evenodd" clip-rule="evenodd" d="M24.7455 12.4701V20.7039C24.7455 21.7359 23.9088 22.5726 22.8768 22.5726L9.12339 22.5726C8.09131 22.5726 7.25464 21.7359 7.25464 20.7039L7.25464 12.4702L13.4638 17.0619C14.9709 18.1765 17.0292 18.1765 18.5364 17.0619L24.7455 12.4701ZM24.3935 10.2041C24.0542 9.73355 23.5012 9.42725 22.8768 9.42725L9.12339 9.42725C8.4989 9.42725 7.94596 9.73356 7.60662 10.2041L14.6715 15.4287C15.461 16.0126 16.5391 16.0126 17.3286 15.4287L24.3935 10.2041ZM22.8768 7.396C25.0307 7.396 26.7768 9.14209 26.7768 11.296V20.7039C26.7768 22.8578 25.0307 24.6039 22.8768 24.6039H9.12339C6.96948 24.6039 5.22339 22.8578 5.22339 20.7039V11.296C5.22339 9.14209 6.96948 7.396 9.12339 7.396H22.8768Z" fill="white"/>
</svg>
