<svg width="32" height="32" viewBox="0 0 32 32" fill="none" xmlns="http://www.w3.org/2000/svg">
<path d="M5.02642 16.2024L9.49401 20.67L20.8273 9.33675C21.0494 9.11464 21.4095 9.11464 21.6316 9.33675L22.2636 9.96873C22.4857 10.1908 22.4857 10.5509 22.2636 10.7731L9.89618 23.1405C9.67407 23.3626 9.31396 23.3626 9.09184 23.1405L3.59011 17.6387C3.368 17.4166 3.368 17.0565 3.59011 16.8344L4.22208 16.2024C4.44419 15.9803 4.80431 15.9803 5.02642 16.2024Z" fill="white"/>
<path d="M14.9931 19.7907L15.994 20.67L27.3273 9.33675C27.5494 9.11464 27.9095 9.11464 28.1316 9.33675L28.7636 9.96873C28.9857 10.1908 28.9857 10.551 28.7636 10.7731L16.3839 23.1527C16.1667 23.37 15.8161 23.3754 15.5922 23.1649L13.5837 21.2769C13.3498 21.057 13.3441 20.6873 13.571 20.4603L14.2155 19.8158C14.4276 19.6037 14.7678 19.5928 14.9931 19.7907Z" fill="white"/>
</svg>
